<mxfile host="app.diagrams.net" modified="2020-12-29T20:02:18.379Z" agent="5.0 (Windows NT 10.0; Win64; x64) AppleWebKit/537.36 (KHTML, like Gecko) Chrome/87.0.4280.88 Safari/537.36" etag="ZZOz8ntpPJ939ksUxxqq" version="14.1.3" type="github">
  <diagram id="vkvLSj4ITJM3TAlvrSP8" name="Page-1">
    <mxGraphModel dx="2031" dy="757" grid="0" gridSize="10" guides="1" tooltips="1" connect="1" arrows="1" fold="1" page="1" pageScale="1" pageWidth="1169" pageHeight="827" math="0" shadow="0">
      <root>
        <mxCell id="0" />
        <mxCell id="1" parent="0" />
        <mxCell id="iYk5aMBg0eBxxjY1zcXO-14" value="" style="edgeStyle=orthogonalEdgeStyle;rounded=0;orthogonalLoop=1;jettySize=auto;html=1;fontFamily=Times New Roman;entryX=0.5;entryY=0;entryDx=0;entryDy=0;" edge="1" parent="1" source="iYk5aMBg0eBxxjY1zcXO-1" target="iYk5aMBg0eBxxjY1zcXO-2">
          <mxGeometry relative="1" as="geometry" />
        </mxCell>
        <mxCell id="iYk5aMBg0eBxxjY1zcXO-1" value="&lt;font face=&quot;Times New Roman&quot;&gt;Bắt đầu&lt;/font&gt;" style="ellipse;whiteSpace=wrap;html=1;gradientColor=#F0F0F0;" vertex="1" parent="1">
          <mxGeometry x="525" y="120" width="120" height="40" as="geometry" />
        </mxCell>
        <mxCell id="iYk5aMBg0eBxxjY1zcXO-15" value="" style="edgeStyle=orthogonalEdgeStyle;rounded=0;orthogonalLoop=1;jettySize=auto;html=1;fontFamily=Times New Roman;entryX=0.5;entryY=0;entryDx=0;entryDy=0;" edge="1" parent="1" source="iYk5aMBg0eBxxjY1zcXO-2" target="iYk5aMBg0eBxxjY1zcXO-3">
          <mxGeometry relative="1" as="geometry" />
        </mxCell>
        <mxCell id="iYk5aMBg0eBxxjY1zcXO-2" value="&lt;font face=&quot;Times New Roman&quot;&gt;Khởi tạo UART, Wifi, ThingSpeak&lt;/font&gt;" style="rounded=0;whiteSpace=wrap;html=1;gradientColor=#F0F0F0;" vertex="1" parent="1">
          <mxGeometry x="525" y="180" width="120" height="40" as="geometry" />
        </mxCell>
        <mxCell id="iYk5aMBg0eBxxjY1zcXO-16" style="edgeStyle=orthogonalEdgeStyle;rounded=0;orthogonalLoop=1;jettySize=auto;html=1;entryX=0.5;entryY=0;entryDx=0;entryDy=0;fontFamily=Times New Roman;" edge="1" parent="1" source="iYk5aMBg0eBxxjY1zcXO-3" target="iYk5aMBg0eBxxjY1zcXO-5">
          <mxGeometry relative="1" as="geometry" />
        </mxCell>
        <mxCell id="iYk5aMBg0eBxxjY1zcXO-3" value="&lt;font face=&quot;Times New Roman&quot;&gt;Đọc Độ ẩm lý tưởng&lt;br&gt;từ cloud&lt;br&gt;&lt;/font&gt;" style="rounded=0;whiteSpace=wrap;html=1;gradientColor=#F0F0F0;" vertex="1" parent="1">
          <mxGeometry x="525" y="240" width="120" height="40" as="geometry" />
        </mxCell>
        <mxCell id="iYk5aMBg0eBxxjY1zcXO-4" value="&lt;font face=&quot;Times New Roman&quot;&gt;Kết thúc&lt;/font&gt;" style="ellipse;whiteSpace=wrap;html=1;gradientColor=#F0F0F0;" vertex="1" parent="1">
          <mxGeometry x="525" y="650" width="120" height="40" as="geometry" />
        </mxCell>
        <mxCell id="iYk5aMBg0eBxxjY1zcXO-22" value="" style="edgeStyle=orthogonalEdgeStyle;rounded=0;orthogonalLoop=1;jettySize=auto;html=1;fontFamily=Times New Roman;entryX=0.5;entryY=0;entryDx=0;entryDy=0;" edge="1" parent="1" source="iYk5aMBg0eBxxjY1zcXO-5" target="iYk5aMBg0eBxxjY1zcXO-6">
          <mxGeometry relative="1" as="geometry" />
        </mxCell>
        <mxCell id="iYk5aMBg0eBxxjY1zcXO-5" value="&lt;font face=&quot;Times New Roman&quot;&gt;Truyền Độ ẩm lý tưởng và&lt;br&gt;nhận Độ ẩm&lt;br&gt;tới/từ LoRa Node Point&lt;br&gt;&lt;/font&gt;" style="rounded=0;whiteSpace=wrap;html=1;gradientColor=#F0F0F0;" vertex="1" parent="1">
          <mxGeometry x="512.5" y="300" width="145" height="44" as="geometry" />
        </mxCell>
        <mxCell id="iYk5aMBg0eBxxjY1zcXO-23" style="edgeStyle=orthogonalEdgeStyle;rounded=0;orthogonalLoop=1;jettySize=auto;html=1;entryX=0.5;entryY=0;entryDx=0;entryDy=0;fontFamily=Times New Roman;" edge="1" parent="1" source="iYk5aMBg0eBxxjY1zcXO-6" target="iYk5aMBg0eBxxjY1zcXO-7">
          <mxGeometry relative="1" as="geometry" />
        </mxCell>
        <mxCell id="iYk5aMBg0eBxxjY1zcXO-6" value="&lt;font face=&quot;Times New Roman&quot;&gt;Số điểm đo cần nước:&lt;br&gt;i = 0&lt;br&gt;&lt;/font&gt;" style="rounded=0;whiteSpace=wrap;html=1;gradientColor=#F0F0F0;" vertex="1" parent="1">
          <mxGeometry x="512.5" y="365" width="145" height="30" as="geometry" />
        </mxCell>
        <mxCell id="iYk5aMBg0eBxxjY1zcXO-24" value="" style="edgeStyle=orthogonalEdgeStyle;rounded=0;orthogonalLoop=1;jettySize=auto;html=1;fontFamily=Times New Roman;" edge="1" parent="1" source="iYk5aMBg0eBxxjY1zcXO-7" target="iYk5aMBg0eBxxjY1zcXO-9">
          <mxGeometry relative="1" as="geometry" />
        </mxCell>
        <mxCell id="iYk5aMBg0eBxxjY1zcXO-7" value="&lt;font face=&quot;Times New Roman&quot;&gt;3% &amp;lt; Độ ẩm &amp;lt; Độ ẩm lý tưởng?&lt;/font&gt;" style="rhombus;whiteSpace=wrap;html=1;gradientColor=#F0F0F0;" vertex="1" parent="1">
          <mxGeometry x="489" y="417" width="192" height="66" as="geometry" />
        </mxCell>
        <mxCell id="iYk5aMBg0eBxxjY1zcXO-25" style="edgeStyle=orthogonalEdgeStyle;rounded=0;orthogonalLoop=1;jettySize=auto;html=1;entryX=0.5;entryY=0;entryDx=0;entryDy=0;fontFamily=Times New Roman;" edge="1" parent="1" source="iYk5aMBg0eBxxjY1zcXO-9">
          <mxGeometry relative="1" as="geometry">
            <mxPoint x="585" y="590" as="targetPoint" />
          </mxGeometry>
        </mxCell>
        <mxCell id="iYk5aMBg0eBxxjY1zcXO-9" value="&lt;font face=&quot;Times New Roman&quot;&gt;i++&lt;br&gt;&lt;/font&gt;" style="rounded=0;whiteSpace=wrap;html=1;gradientColor=#F0F0F0;" vertex="1" parent="1">
          <mxGeometry x="561.25" y="520" width="47.5" height="30" as="geometry" />
        </mxCell>
        <mxCell id="iYk5aMBg0eBxxjY1zcXO-10" value="&lt;font face=&quot;Times New Roman&quot;&gt;i = i&lt;br&gt;&lt;/font&gt;" style="rounded=0;whiteSpace=wrap;html=1;gradientColor=#F0F0F0;" vertex="1" parent="1">
          <mxGeometry x="690" y="520" width="47.5" height="30" as="geometry" />
        </mxCell>
        <mxCell id="iYk5aMBg0eBxxjY1zcXO-38" style="edgeStyle=orthogonalEdgeStyle;rounded=0;orthogonalLoop=1;jettySize=auto;html=1;entryX=0.5;entryY=0;entryDx=0;entryDy=0;fontFamily=Times New Roman;" edge="1" parent="1" source="iYk5aMBg0eBxxjY1zcXO-13" target="iYk5aMBg0eBxxjY1zcXO-4">
          <mxGeometry relative="1" as="geometry" />
        </mxCell>
        <mxCell id="iYk5aMBg0eBxxjY1zcXO-13" value="&lt;font face=&quot;Times New Roman&quot;&gt;Tính công suất bơm và gửi tới LoRa Node Pump, cloud&lt;br&gt;&lt;/font&gt;" style="rounded=0;whiteSpace=wrap;html=1;gradientColor=#F0F0F0;" vertex="1" parent="1">
          <mxGeometry x="512.5" y="590" width="145" height="33" as="geometry" />
        </mxCell>
        <mxCell id="iYk5aMBg0eBxxjY1zcXO-31" value="" style="endArrow=classic;html=1;fontFamily=Times New Roman;" edge="1" parent="1">
          <mxGeometry width="50" height="50" relative="1" as="geometry">
            <mxPoint x="715" y="560" as="sourcePoint" />
            <mxPoint x="585" y="560" as="targetPoint" />
          </mxGeometry>
        </mxCell>
        <mxCell id="iYk5aMBg0eBxxjY1zcXO-32" value="" style="endArrow=classic;html=1;fontFamily=Times New Roman;" edge="1" parent="1">
          <mxGeometry width="50" height="50" relative="1" as="geometry">
            <mxPoint x="715" y="449.86" as="sourcePoint" />
            <mxPoint x="715" y="520" as="targetPoint" />
          </mxGeometry>
        </mxCell>
        <mxCell id="iYk5aMBg0eBxxjY1zcXO-33" value="" style="endArrow=none;html=1;fontFamily=Times New Roman;" edge="1" parent="1">
          <mxGeometry width="50" height="50" relative="1" as="geometry">
            <mxPoint x="681" y="450" as="sourcePoint" />
            <mxPoint x="715" y="450" as="targetPoint" />
          </mxGeometry>
        </mxCell>
        <mxCell id="iYk5aMBg0eBxxjY1zcXO-34" value="" style="endArrow=none;html=1;fontFamily=Times New Roman;" edge="1" parent="1">
          <mxGeometry width="50" height="50" relative="1" as="geometry">
            <mxPoint x="715" y="560" as="sourcePoint" />
            <mxPoint x="715" y="550" as="targetPoint" />
          </mxGeometry>
        </mxCell>
        <mxCell id="iYk5aMBg0eBxxjY1zcXO-35" value="Đúng" style="text;html=1;strokeColor=none;fillColor=none;align=center;verticalAlign=middle;whiteSpace=wrap;rounded=0;fontFamily=Times New Roman;" vertex="1" parent="1">
          <mxGeometry x="585" y="483" width="40" height="20" as="geometry" />
        </mxCell>
        <mxCell id="iYk5aMBg0eBxxjY1zcXO-36" value="Sai" style="text;html=1;strokeColor=none;fillColor=none;align=center;verticalAlign=middle;whiteSpace=wrap;rounded=0;fontFamily=Times New Roman;" vertex="1" parent="1">
          <mxGeometry x="680" y="430" width="40" height="20" as="geometry" />
        </mxCell>
      </root>
    </mxGraphModel>
  </diagram>
</mxfile>
